<?xml version="1.0" encoding="UTF-8"?>
<svg version="1.1" xmlns="http://www.w3.org/2000/svg" width="1024" height="1024">
<path d="M0 0 C23.76 0 47.52 0 72 0 C82.375 20.3125 82.375 20.3125 85.57958984 26.59106445 C90.47655189 36.17544397 95.41647591 45.73433886 100.44384766 55.25099182 C104.12168312 62.21593889 107.73563539 69.21261318 111.33258057 76.21960449 C113.16207005 79.7830331 114.99492783 83.34472769 116.828125 86.90625 C117.18943512 87.60820496 117.55074524 88.31015991 117.92300415 89.03338623 C120.97011696 94.94951289 124.04095694 100.85303854 127.125 106.75 C131.56430554 115.23834245 135.97685647 123.74027159 140.375 132.25 C140.69115265 132.8616803 141.0073053 133.4733606 141.33303833 134.10357666 C141.80735794 135.02127838 141.80735794 135.02127838 142.29125977 135.95751953 C142.9298462 137.19303595 143.56843669 138.42855028 144.20703125 139.6640625 C144.52334 140.27605499 144.83964874 140.88804749 145.1655426 141.51858521 C150.18609616 151.23080739 155.2229199 160.93460144 160.25732422 170.63964844 C162.0278106 174.05362638 163.79725089 177.46814464 165.56640625 180.8828125 C171.78279605 192.8796375 178.00956321 204.87082455 184.27001953 216.84472656 C184.73263184 217.72999023 185.19524414 218.61525391 185.671875 219.52734375 C186.0750293 220.29812256 186.47818359 221.06890137 186.89355469 221.86303711 C187.9480337 223.89963349 188.97986024 225.94602146 190 228 C195.29861991 217.44996782 200.53761759 206.87344634 205.6875 196.25 C206.20281784 195.18768661 206.20281784 195.18768661 206.72854614 194.10391235 C211.92499952 183.38286038 217.0093968 172.6163056 222.00146484 161.79833984 C226.38649188 152.29900907 230.83901158 142.83293442 235.3125 133.375 C236.03679787 131.84318697 236.7610817 130.31136729 237.48535156 128.77954102 C238.57545516 126.47408494 239.66559055 124.16864394 240.75585938 121.86326599 C244.57450409 113.78765651 248.38331019 105.70742773 252.1875 97.625 C252.51901062 96.92072876 252.85052124 96.21645752 253.19207764 95.49084473 C258.36183236 84.50562828 263.4994451 73.50568263 268.62597656 62.50024414 C274.05935755 50.84437414 279.55214633 39.21667855 285.05249023 27.59228516 C285.56718872 26.5041024 285.56718872 26.5041024 286.09228516 25.39393616 C286.7186219 24.06989729 287.34528191 22.74601125 287.97241211 21.42234802 C291.3442379 14.29500632 294.66550879 7.14533831 298 0 C323.74 0 349.48 0 376 0 C373.05351148 1.47324426 370.38330352 2.59466976 367.3125 3.6875 C357.2920029 7.72517089 350.6838116 14.25621577 346 24 C342.82808284 32.01888173 342.5748803 39.57342285 342.61904907 48.11889648 C342.61558701 49.5310855 342.61081877 50.94327182 342.60486734 52.35545254 C342.59240297 56.21296562 342.59850676 60.07025459 342.60782599 63.92776823 C342.61463496 68.09689024 342.60412612 72.26597466 342.59588623 76.43508911 C342.58256637 84.59327947 342.58541884 92.7513869 342.59412415 100.90958047 C342.60090717 107.54160507 342.60181474 114.17360647 342.5985527 120.80563354 C342.598093 121.75056496 342.59763331 122.69549638 342.59715968 123.66906208 C342.59620047 125.58884343 342.59522783 127.50862478 342.5942419 129.42840612 C342.58569313 147.41812902 342.5955141 165.40780601 342.611643 183.39752138 C342.62504571 198.82395651 342.62271748 214.2503239 342.60888672 229.67675781 C342.59282186 247.60336579 342.58651705 265.52993356 342.59572351 283.45654774 C342.59667913 285.36915397 342.59762224 287.28176021 342.5985527 289.19436646 C342.59924694 290.60581952 342.59924694 290.60581952 342.59995521 292.0457868 C342.60254238 298.66764985 342.59817999 305.28948734 342.59111404 311.91134644 C342.58268878 319.98432571 342.58500075 328.05721751 342.60095628 336.1301868 C342.60882518 340.24688578 342.61195421 344.36343906 342.60200882 348.48013687 C342.59303271 352.25275839 342.59804241 356.02509991 342.61394148 359.79769623 C342.61885024 361.79999873 342.60911893 363.80232085 342.59876978 365.80460262 C342.67871578 378.11920362 345.45745873 388.62529339 353.78125 398.0078125 C358.85626766 402.81243987 364.60795235 405.34988087 371 408 C372.32 408.66 373.64 409.32 375 410 C340.68 410 306.36 410 271 410 C273.23090646 408.88454677 275.46962146 407.78330324 277.734375 406.73828125 C290.19567888 400.8466026 297.08831457 394.25000994 302.06127918 381.21907032 C303.03372845 377.88433807 303.24855474 375.21363227 303.24609566 371.7487812 C303.25007775 370.50719627 303.25405985 369.26561135 303.25816262 367.98640263 C303.25245728 366.61667692 303.2465661 365.24695198 303.24050903 363.87722778 C303.24138146 362.41599416 303.24313312 360.95476085 303.24568737 359.4935292 C303.25015766 355.4822896 303.24216157 351.47115688 303.23213124 347.4599309 C303.22349448 343.13279761 303.22641706 338.80567036 303.22793579 334.47853088 C303.2289845 326.98282569 303.22270937 319.48715532 303.21146011 311.99145889 C303.19520617 301.15394417 303.18999721 290.31644628 303.18748413 279.47892068 C303.18310686 261.89576831 303.1697969 244.31263449 303.15087891 226.72949219 C303.13252093 209.64908949 303.11836402 192.56869183 303.10986328 175.48828125 C303.10933783 174.43544815 303.10881239 173.38261505 303.10827102 172.29787792 C303.10566094 167.01612461 303.10313353 161.73437126 303.10064721 156.45261788 C303.07991373 112.63506574 303.04468732 68.81753383 303 25 C302.62936841 25.79890341 302.25873682 26.59780682 301.87687397 27.42091942 C300.48107709 30.42928764 299.08506569 33.43755613 297.68891621 36.44576073 C297.08855281 37.73944076 296.4882711 39.03315871 295.88807774 40.32691765 C291.51576119 49.75155558 287.11759412 59.16336146 282.66934204 68.5524292 C280.88929468 72.30993197 279.11301695 76.06921793 277.3359375 79.828125 C276.97512589 80.5910788 276.61431427 81.35403259 276.24256897 82.1401062 C272.42438861 90.21456342 268.61616164 98.29369442 264.8125 106.375 C264.48098938 107.07927124 264.14947876 107.78354248 263.80792236 108.50915527 C258.92049097 118.89446262 254.05959095 129.29191538 249.21408081 139.69683838 C244.66907855 149.4544059 240.08079463 159.19102371 235.47689819 168.92092896 C228.74987358 183.13977271 222.05310644 197.37003401 215.52392578 211.68115234 C214.12274447 214.73268371 212.70467858 217.77558203 211.28079224 220.81654358 C210.03962848 223.47508471 208.81171797 226.13961892 207.58630371 228.80545044 C206.99365022 230.08764818 206.39569683 231.36741135 205.79211426 232.64450073 C204.9551088 234.41774516 204.13921856 236.20090948 203.32421875 237.984375 C202.85072998 239.00241211 202.37724121 240.02044922 201.8894043 241.06933594 C200.12778076 246.8740378 202.38505705 251.28213951 204.921875 256.53125 C205.21817307 257.15146027 205.51447113 257.77167053 205.81974792 258.41067505 C206.45801535 259.74632386 207.09932304 261.08052328 207.74337769 262.41339111 C209.47008191 265.99264455 211.1667082 269.5860764 212.86328125 273.1796875 C213.21060806 273.9148056 213.55793488 274.64992371 213.91578674 275.40731812 C249.0538914 350.02160295 249.0538914 350.02160295 240 377 C234.96639387 390.26503263 224.25012505 400.64768362 211.72265625 406.921875 C204.01090806 409.97559451 196.90873338 410.36514831 188.6875 410.375 C187.62337891 410.39949219 186.55925781 410.42398437 185.46289062 410.44921875 C171.81524 410.49917964 161.88579995 405.26522836 151.96484375 396.125 C141.49983346 385.08498915 138.25104338 371.59537619 138.63671875 356.88671875 C139.9786121 332.96498047 152.94361828 308.8946134 162.5546875 287.43359375 C162.96428711 286.51562012 163.37388672 285.59764648 163.79589844 284.65185547 C164.59062266 282.901593 165.40607486 281.1605766 166.24316406 279.43017578 C166.61924805 278.63981934 166.99533203 277.84946289 167.3828125 277.03515625 C167.71941895 276.34945557 168.05602539 275.66375488 168.40283203 274.95727539 C169.81554228 270.32698182 166.60510896 265.9330443 164.55688477 261.87084961 C164.02480659 260.80384575 164.02480659 260.80384575 163.48197937 259.71528625 C162.30569003 257.35899889 161.12365256 255.00564719 159.94140625 252.65234375 C159.11452998 250.99978515 158.287951 249.34707777 157.46165466 247.69422913 C155.72308434 244.21865453 153.9818339 240.74444055 152.23852539 237.27124023 C150.03272741 232.87642719 147.83203693 228.47908339 145.63325596 224.08075619 C143.9213763 220.65727288 142.20738807 217.23484862 140.49275017 213.81274605 C139.68276131 212.19589725 138.87321932 210.57882449 138.06418037 208.96150017 C133.2996694 199.44175203 128.43753703 189.98135578 123.46199894 180.57009029 C120.49587142 174.95673361 117.59577534 169.31610701 114.78125 163.625 C114.1388739 162.33456787 114.1388739 162.33456787 113.48352051 161.01806641 C111.71155163 157.45829739 109.94458138 153.89605549 108.17724609 150.33398438 C103.33308075 140.57765285 98.43144946 130.86638498 93.3088913 121.25314331 C88.78310516 112.69288823 84.48260902 104.02042327 80.16210938 95.35546875 C79.36783072 93.76439811 78.57345887 92.17337398 77.7789917 90.58239746 C75.85158703 86.72213342 73.92544198 82.86124335 72 79 C71.95419762 116.01182865 71.91896813 153.02365303 71.89786934 190.0355043 C71.895368 194.40754002 71.89277935 198.77957569 71.89013672 203.15161133 C71.88934979 204.45717248 71.88934979 204.45717248 71.88854696 205.7891086 C71.8798502 219.87224721 71.86408425 233.95536946 71.84569441 248.03849838 C71.82697506 262.49479911 71.81587897 276.95109129 71.81182301 291.40740365 C71.80908218 300.32388514 71.80043309 309.24032035 71.78416707 318.1567876 C71.77357507 324.27555147 71.77040439 330.39429151 71.77299725 336.51306389 C71.77427509 340.04044747 71.77235028 343.56775033 71.76158905 347.09511948 C71.7499837 350.92735946 71.75404183 354.75949551 71.75949097 358.5917511 C71.75075244 360.24792457 71.75075244 360.24792457 71.74183738 361.93755609 C71.79408455 375.57046802 74.17503091 388.12599482 83.75 398.4375 C89.50517717 403.74064218 96.53333494 406.83859696 104 409 C104 409.33 104 409.66 104 410 C70.01 410 36.02 410 1 410 C3.65767637 408.22821575 5.66019788 407.35253376 8.625 406.3125 C17.84818057 402.65549546 24.41753447 396.81130029 29 388 C31.69316369 381.5152843 33.12279524 375.1867622 33.13142776 368.15522671 C33.13718948 366.39053796 33.13718948 366.39053796 33.1430676 364.59019893 C33.14220112 363.301699 33.14133463 362.01319907 33.14044189 360.68565369 C33.14302656 359.29983216 33.14604 357.91401138 33.1494453 356.52819163 C33.15750685 352.72032161 33.1593044 348.91247046 33.16004276 345.10459292 C33.16189483 340.99738665 33.16944301 336.89019013 33.17617798 332.7829895 C33.18975657 323.80136269 33.19578549 314.81974034 33.20018864 305.83810496 C33.20295227 300.2279156 33.20718989 294.61772795 33.21169281 289.00753975 C33.22388563 273.46938021 33.23418442 257.93122204 33.2375679 242.39305782 C33.23778747 241.39866718 33.23800703 240.40427654 33.23823325 239.37975285 C33.23845153 238.38300139 33.23866981 237.38624993 33.2388947 236.35929388 C33.23933816 234.33954553 33.23978473 232.31979718 33.24023438 230.30004883 C33.24056652 228.79725591 33.24056652 228.79725591 33.24090537 227.26410354 C33.24485154 211.03829276 33.26229995 194.81252693 33.2855939 178.58673351 C33.30932577 161.9210926 33.32177062 145.25547423 33.32293582 128.58981615 C33.32385163 119.23550599 33.32958013 109.88125438 33.34775543 100.52696037 C33.36318131 92.5596957 33.36826228 84.59250768 33.36001733 76.6252309 C33.35611941 72.56299223 33.35699822 68.50090781 33.37107468 64.43868828 C33.38386549 60.7132687 33.38257105 56.98811844 33.37048396 53.26269896 C33.36761937 51.29045676 33.37942345 49.31820968 33.39190602 47.3460049 C33.31984365 34.28137335 30.93994461 22.69752141 21.99609375 12.77734375 C16.61118007 7.62362493 10.84623673 4.78162059 4 2 C2.68 1.34 1.36 0.68 0 0 Z M180 289 C154.83949177 331.7622322 154.83949177 331.7622322 149.79296875 378.1796875 C154.10829019 388.26273629 160.92543627 394.8695026 170.8125 399.375 C178.94441085 402.33885112 186.71461906 401.96004602 194.58203125 398.3828125 C203.8215976 393.09879555 208.68361408 385.94915777 212 376 C214.84314457 351.87388751 198.22636451 324.81878318 188.4375 303.375 C187.93726318 302.27293213 187.43702637 301.17086426 186.92163086 300.03540039 C186.21598999 298.51354126 186.21598999 298.51354126 185.49609375 296.9609375 C185.08544678 296.07196777 184.6747998 295.18299805 184.25170898 294.26708984 C183.04845214 292.0877563 181.85339113 290.64094975 180 289 Z " fill="#000000" transform="translate(197,307)"/>
<path d="M0 0 C9.94840445 3.74450382 21.24199185 7.14248549 31.8425293 4.0637207 C36.36493385 1.79765563 38.90664652 -1.65094257 40.59643555 -6.28393555 C41.15450567 -8.98442744 41.40257824 -11.52146897 41.59643555 -14.28393555 C43.24643555 -14.28393555 44.89643555 -14.28393555 46.59643555 -14.28393555 C46.59643555 24.32606445 46.59643555 62.93606445 46.59643555 102.71606445 C44.94643555 102.71606445 43.29643555 102.71606445 41.59643555 102.71606445 C41.48428711 101.43989258 41.48428711 101.43989258 41.36987305 100.13793945 C37.76872932 66.95092867 22.07256982 30.75126631 -3.40356445 8.71606445 C-25.95218527 -8.64461724 -54.65152043 -14.07349003 -82.49707031 -10.51293945 C-102.89422523 -7.51244492 -122.0199599 0.42179794 -135.40356445 16.71606445 C-149.81840606 36.37533014 -153.89011564 58.33744043 -151.10620117 82.27270508 C-148.90135765 96.45729732 -142.7113503 108.82301095 -133.40356445 119.71606445 C-132.25887695 121.23200195 -132.25887695 121.23200195 -131.09106445 122.77856445 C-110.20738067 145.60491649 -75.97784449 157.00418213 -47.90356445 167.71606445 C-12.02684831 181.41827791 30.5986056 197.83024914 48.59643555 234.71606445 C60.1773689 262.07781632 59.38237442 292.25295379 48.59643555 319.71606445 C44.44705011 329.35301214 39.27025913 337.63491069 32.59643555 345.71606445 C31.82428711 346.65321289 31.05213867 347.59036133 30.2565918 348.5559082 C7.65059957 374.6792023 -31.60018861 390.97558047 -65.40356445 395.71606445 C-68.02175991 395.8300793 -70.61340487 395.90271348 -73.23168945 395.91918945 C-74.34480499 395.9297789 -74.34480499 395.9297789 -75.48040771 395.94058228 C-106.27819442 396.16698337 -106.27819442 396.16698337 -119.40356445 392.71606445 C-120.17941895 392.52270508 -120.95527344 392.3293457 -121.75463867 392.13012695 C-146.30557289 385.88762926 -167.30622891 374.35761525 -185.40356445 356.71606445 C-186.47670898 355.75313477 -186.47670898 355.75313477 -187.5715332 354.77075195 C-203.40232895 340.1722936 -214.51230126 315.58312543 -215.58056641 294.16772461 C-215.63565608 290.6503258 -215.6801761 287.13372415 -215.69873047 283.6159668 C-215.71015078 282.11717208 -215.73044119 280.61841474 -215.76025391 279.11987305 C-216.23695556 255.07173944 -208.43217567 233.37239465 -191.84570312 215.63867188 C-176.57584117 199.96618884 -152.51949578 186.88006084 -130.40356445 185.71606445 C-130.40356445 185.05606445 -130.40356445 184.39606445 -130.40356445 183.71606445 C-131.08547852 183.46598633 -131.76739258 183.2159082 -132.4699707 182.95825195 C-155.19051575 173.33756843 -174.30967846 154.13111096 -184.21606445 131.71606445 C-194.45113899 105.62868591 -192.86400859 74.20171873 -182.15356445 48.5246582 C-176.84319271 36.60385251 -169.6578474 26.84875828 -160.40356445 17.71606445 C-159.67524414 16.9890332 -158.94692383 16.26200195 -158.1965332 15.51293945 C-115.7652339 -24.47796973 -50.25365252 -19.13026682 0 0 Z M-170.40356445 66.71606445 C-175.65040924 88.23437431 -175.87864374 111.69932879 -165.40356445 131.71606445 C-145.2848674 164.54130702 -107.39737326 177.98966568 -73.0758667 191.14421082 C-57.15367631 197.25277633 -41.50926232 203.78599221 -26.40356445 211.71606445 C-24.76967773 212.52237305 -24.76967773 212.52237305 -23.1027832 213.3449707 C-13.7367278 218.09089621 -5.6280659 224.25242853 2.59643555 230.71606445 C3.96155273 231.77374023 3.96155273 231.77374023 5.35424805 232.8527832 C24.84266347 249.04786013 32.77979141 273.52044261 35.09008789 297.77392578 C35.2667035 299.75395559 35.43277593 301.73492169 35.59643555 303.71606445 C39.97094018 295.63476084 39.95567242 286.45054149 39.90893555 277.46606445 C39.90474609 276.36649414 39.90055664 275.26692383 39.89624023 274.1340332 C39.73604719 262.58650063 38.1281203 252.00800853 32.59643555 241.71606445 C32.17620117 240.91813477 31.7559668 240.12020508 31.32299805 239.2980957 C27.58211696 232.63271365 22.93723997 227.15868663 17.59643555 221.71606445 C17.02795898 221.1230957 16.45948242 220.53012695 15.8737793 219.91918945 C-5.20745211 199.75035758 -37.30113349 189.82648036 -63.85614014 179.33944702 C-89.61253263 169.15890525 -115.08144077 158.84386249 -136.40356445 140.71606445 C-137.28141602 140.05477539 -137.28141602 140.05477539 -138.17700195 139.38012695 C-155.32437402 126.09695141 -164.88007452 103.66137833 -168.0324707 82.79418945 C-168.67695251 77.44838245 -169.07422198 72.08954696 -169.40356445 66.71606445 C-169.73356445 66.71606445 -170.06356445 66.71606445 -170.40356445 66.71606445 Z M-189.73950195 221.02856445 C-206.06643765 238.54405102 -212.37127313 261.44340011 -211.68481445 284.9855957 C-210.20649166 315.17417899 -195.93434052 339.85388344 -174.12133789 360.17602539 C-144.94856275 386.33035535 -106.49060265 394.55647828 -68.40356445 392.71606445 C-40.69851983 390.02816377 -15.68927507 376.57877177 2.59643555 355.71606445 C10.68239472 344.75323553 16.95325662 331.33988971 18.59643555 317.71606445 C18.72920898 316.69641602 18.86198242 315.67676758 18.9987793 314.6262207 C21.12753525 293.74527745 16.83887468 271.61212435 3.4284668 255.03637695 C1.21365252 252.52803308 -1.07265037 250.11637528 -3.40356445 247.71606445 C-4.00555664 247.0405957 -4.60754883 246.36512695 -5.2277832 245.66918945 C-24.94891891 224.27967133 -56.83278393 214.6078484 -83.14575195 204.2746582 C-83.87742584 203.98719223 -84.60909973 203.69972626 -85.36294556 203.40354919 C-88.90551741 202.01302689 -92.45018825 200.62842953 -95.99975586 199.25585938 C-103.38981175 196.38418097 -110.59513647 193.31313273 -117.71411133 189.81323242 C-139.37921536 180.97490839 -175.49641875 206.92838844 -189.73950195 221.02856445 Z " fill="#000000" transform="translate(770.403564453125,321.283935546875)"/>
</svg>
